# xmcd CD database file
#
# Track frame offsets:
#	150
#	14286
#	35540
#	56149
#	73588
#	82929
#	101246
#	117744
#	128589
#	143921
#	156353
#	166665
#	177363
#	201593
#	222783
#	237977
#
# Disc length: 3374 seconds
#
# Revision: 0
# Processed by: cddbd v1.5.2PL0 Copyright (c) Steve Scherf et al.
# Submitted via: NeoAudio 9.9.9
#
DISCID=e80d2c10
DTITLE=Relaxing Melodies - Touch The Earth
DYEAR=1900
DGENRE=New Age
TTITLE0=Do Do Do, Do Do Do
TTITLE1=Ontario
TTITLE2=Wind In The Rainforest
TTITLE3=Meadow
TTITLE4=Mis Hichas
TTITLE5=Touch The Earth
TTITLE6=Hands Dancing
TTITLE7=Sun Dancer
TTITLE8=Dolphins and Whales
TTITLE9=Camel Walk
TTITLE10=Big Blue Ball
TTITLE11=Three Valleys
TTITLE12=Echoes Of The Laughter
TTITLE13=Bossa Beach
TTITLE14=Storyteller
TTITLE15=So Long
EXTD=
EXTT0=
EXTT1=
EXTT2=
EXTT3=
EXTT4=
EXTT5=
EXTT6=
EXTT7=
EXTT8=
EXTT9=
EXTT10=
EXTT11=
EXTT12=
EXTT13=
EXTT14=
EXTT15=
PLAYORDER=
